<?xml version="1.0" encoding="UTF-8"?>
<svg xmlns="http://www.w3.org/2000/svg" xmlns:xlink="http://www.w3.org/1999/xlink" width="70px" height="70px" viewBox="0 0 70 70" version="1.1">
<g id="surface1">
<rect x="0" y="0" width="70" height="70" style="fill:rgb(100%,100%,100%);fill-opacity:1;stroke:none;"/>
<path style=" stroke:none;fill-rule:evenodd;fill:rgb(0%,0%,0%);fill-opacity:1;" d="M 15.519531 25.957031 C 11.933594 30.171875 8.492188 35.394531 8.457031 39.304688 C 8.445312 40.773438 8.914062 42.054688 10.039062 43.027344 C 11.660156 44.429688 13.441406 44.921875 15.21875 44.921875 C 17.816406 44.925781 20.394531 43.882812 22.410156 43.070312 C 25.808594 41.714844 63.371094 25.402344 63.371094 25.402344 C 63.734375 25.222656 63.664062 24.996094 63.210938 25.105469 C 63.027344 25.152344 22.316406 36.1875 22.316406 36.1875 C 21.546875 36.402344 20.75 36.519531 19.949219 36.527344 C 16.820312 36.542969 14.035156 34.804688 14.058594 31.148438 C 14.066406 29.714844 14.503906 27.988281 15.519531 25.957031 Z M 15.519531 25.957031 "/>
</g>
</svg>
